<svg width="201" height="201" viewBox="0 0 201 201" fill="none" xmlns="http://www.w3.org/2000/svg">
<circle cx="100.5" cy="100.5" r="100.5" fill="#FF5C37"/>
<path d="M129.633 71.3672C133.655 67.3448 140.282 67.3034 143.425 72.0448C147.109 77.6019 149.697 83.8497 151.01 90.4528C152.998 100.443 151.978 110.798 148.08 120.208C144.182 129.619 137.581 137.662 129.112 143.321C120.643 148.98 110.686 152 100.5 152C90.3143 152 80.3573 148.98 71.8882 143.321C63.419 137.662 56.8181 129.619 52.9202 120.208C49.0223 110.798 48.0024 100.443 49.9896 90.4529C51.303 83.8497 53.8912 77.602 57.575 72.0448C60.7181 67.3034 67.3448 67.3448 71.3672 71.3672C75.3896 75.3896 75.1888 81.8852 72.7039 87.0023C71.5579 89.3623 70.711 91.8711 70.1937 94.4717C69.0014 100.466 69.6134 106.679 71.9521 112.325C74.2909 117.971 78.2514 122.797 83.3329 126.192C88.4144 129.588 94.3886 131.4 100.5 131.4C106.611 131.4 112.586 129.588 117.667 126.192C122.749 122.797 126.709 117.971 129.048 112.325C131.387 106.679 131.999 100.466 130.806 94.4717C130.289 91.871 129.442 89.3623 128.296 87.0023C125.811 81.8852 125.61 75.3896 129.633 71.3672Z" fill="black"/>
<rect x="92" y="52" width="17" height="42" rx="8.5" fill="black"/>
</svg>
