<svg width="206" height="162" viewBox="0 0 206 162" fill="none" xmlns="http://www.w3.org/2000/svg">
<circle cx="50.193" cy="25.9291" r="24.9776" fill="#FF5C37"/>
<circle cx="153.434" cy="129.645" r="24.9776" fill="#FF5C37"/>
<path d="M75.1706 25.9291C75.1706 39.7239 63.9878 50.9067 50.193 50.9067C36.3983 50.9067 25.2155 39.7239 25.2155 25.9291C25.2155 12.1344 36.3983 0.951538 50.193 0.951538C63.9878 0.951538 75.1706 12.1344 75.1706 25.9291ZM32.4497 25.9291C32.4497 35.7285 40.3936 43.6725 50.193 43.6725C59.9924 43.6725 67.9364 35.7285 67.9364 25.9291C67.9364 16.1297 59.9924 8.18575 50.193 8.18575C40.3936 8.18575 32.4497 16.1297 32.4497 25.9291Z" fill="black"/>
<path d="M178.411 129.645C178.411 143.44 167.228 154.623 153.434 154.623C139.639 154.623 128.456 143.44 128.456 129.645C128.456 115.851 139.639 104.668 153.434 104.668C167.228 104.668 178.411 115.851 178.411 129.645ZM135.69 129.645C135.69 139.445 143.634 147.389 153.434 147.389C163.233 147.389 171.177 139.445 171.177 129.645C171.177 119.846 163.233 111.902 153.434 111.902C143.634 111.902 135.69 119.846 135.69 129.645Z" fill="black"/>
<circle cx="97.5315" cy="80.8798" r="80.8798" fill="#FF5C37"/>
<path d="M178.411 80.8798C178.411 125.548 142.2 161.76 97.5315 161.76C52.8628 161.76 16.6517 125.548 16.6517 80.8798C16.6517 36.2111 52.8628 0 97.5315 0C142.2 0 178.411 36.2111 178.411 80.8798ZM24.0466 80.8798C24.0466 121.464 56.9469 154.365 97.5315 154.365C138.116 154.365 171.016 121.464 171.016 80.8798C171.016 40.2952 138.116 7.39489 97.5315 7.39489C56.9469 7.39489 24.0466 40.2952 24.0466 80.8798Z" fill="black"/>
<path d="M166.517 80.8797C166.517 118.979 135.631 149.865 97.5315 149.865C59.4318 149.865 28.5458 118.979 28.5458 80.8797C28.5458 42.78 59.4318 11.894 97.5315 11.894C135.631 11.894 166.517 42.78 166.517 80.8797ZM30.6303 80.8797C30.6303 117.828 60.583 147.781 97.5315 147.781C134.48 147.781 164.433 117.828 164.433 80.8797C164.433 43.9312 134.48 13.9785 97.5315 13.9785C60.583 13.9785 30.6303 43.9312 30.6303 80.8797Z" fill="black"/>
<mask id="path-8-inside-1_24_1860" fill="white">
<path fill-rule="evenodd" clip-rule="evenodd" d="M130.729 47.5955C129.878 47.6813 129.055 47.2512 128.648 46.4996C119.801 30.1418 102.493 19.0305 82.5903 19.0305C54.5559 19.0305 31.6705 41.0761 30.3247 68.7769C30.323 68.8103 30.2955 68.8369 30.2621 68.8368C13.5488 68.8368 -1.62593e-05 82.3856 -1.62593e-05 99.0989C-1.62593e-05 115.167 12.5235 128.311 28.3424 129.301C28.3582 129.302 28.3707 129.315 28.3707 129.331C28.3707 129.348 28.3841 129.361 28.4006 129.361H196.073C201.296 129.361 205.53 125.127 205.53 119.904C205.53 117.475 204.614 115.261 203.11 113.586C202.543 112.955 202.292 112.077 202.538 111.265C203.254 108.912 203.639 106.415 203.639 103.827C203.639 89.7255 192.207 78.2937 178.105 78.2937C176.802 78.2937 175.522 78.3913 174.271 78.5796C173.131 78.7512 172.022 78.0214 171.762 76.8982C167.845 59.9973 152.695 47.4012 134.603 47.4012C133.295 47.4012 132.003 47.467 130.729 47.5955Z"/>
</mask>
<path fill-rule="evenodd" clip-rule="evenodd" d="M130.729 47.5955C129.878 47.6813 129.055 47.2512 128.648 46.4996C119.801 30.1418 102.493 19.0305 82.5903 19.0305C54.5559 19.0305 31.6705 41.0761 30.3247 68.7769C30.323 68.8103 30.2955 68.8369 30.2621 68.8368C13.5488 68.8368 -1.62593e-05 82.3856 -1.62593e-05 99.0989C-1.62593e-05 115.167 12.5235 128.311 28.3424 129.301C28.3582 129.302 28.3707 129.315 28.3707 129.331C28.3707 129.348 28.3841 129.361 28.4006 129.361H196.073C201.296 129.361 205.53 125.127 205.53 119.904C205.53 117.475 204.614 115.261 203.11 113.586C202.543 112.955 202.292 112.077 202.538 111.265C203.254 108.912 203.639 106.415 203.639 103.827C203.639 89.7255 192.207 78.2937 178.105 78.2937C176.802 78.2937 175.522 78.3913 174.271 78.5796C173.131 78.7512 172.022 78.0214 171.762 76.8982C167.845 59.9973 152.695 47.4012 134.603 47.4012C133.295 47.4012 132.003 47.467 130.729 47.5955Z" fill="#FF5C37"/>
<path d="M196.073 129.361V137.361H196.073L196.073 129.361ZM203.11 113.586L197.159 118.933L203.11 113.586ZM202.538 111.265L194.884 108.938L202.538 111.265ZM28.3424 129.301L28.8422 121.317L28.3424 129.301ZM30.3247 68.7769L22.3341 68.3887L30.3247 68.7769ZM174.271 78.5796L173.08 70.6687L174.271 78.5796ZM171.762 76.8982L163.969 78.7043L171.762 76.8982ZM128.648 46.4996L135.685 42.6937L128.648 46.4996ZM82.5903 27.0305C99.4393 27.0305 114.105 36.4281 121.611 50.3056L135.685 42.6937C125.496 23.8555 105.547 11.0305 82.5903 11.0305V27.0305ZM38.3152 69.1651C39.455 45.7058 58.8441 27.0305 82.5903 27.0305V11.0305C50.2676 11.0305 23.886 36.4465 22.3341 68.3887L38.3152 69.1651ZM7.99998 99.0989C7.99998 86.8039 17.9671 76.8368 30.2621 76.8368V60.8368C9.1305 60.8368 -8.00002 77.9673 -8.00002 99.0989H7.99998ZM28.8422 121.317C17.2127 120.589 7.99998 110.917 7.99998 99.0989H-8.00002C-8.00002 119.418 7.83438 136.033 27.8426 137.285L28.8422 121.317ZM196.073 121.361H28.4006V137.361H196.073V121.361ZM197.53 119.904C197.53 120.709 196.878 121.361 196.073 121.361L196.073 137.361C205.714 137.361 213.53 129.545 213.53 119.904H197.53ZM197.159 118.933C197.396 119.196 197.53 119.525 197.53 119.904H213.53C213.53 115.426 211.833 111.325 209.061 108.239L197.159 118.933ZM195.639 103.827C195.639 105.617 195.373 107.331 194.884 108.938L210.192 113.592C211.135 110.493 211.639 107.212 211.639 103.827H195.639ZM178.105 86.2937C187.788 86.2937 195.639 94.1438 195.639 103.827H211.639C211.639 85.3072 196.625 70.2937 178.105 70.2937V86.2937ZM175.463 86.4904C176.32 86.3613 177.202 86.2937 178.105 86.2937V70.2937C176.402 70.2937 174.724 70.4213 173.08 70.6687L175.463 86.4904ZM134.603 55.4012C148.89 55.4012 160.873 65.3489 163.969 78.7043L179.555 75.0921C174.817 54.6457 156.5 39.4012 134.603 39.4012V55.4012ZM131.532 55.5551C132.539 55.4535 133.564 55.4012 134.603 55.4012V39.4012C133.027 39.4012 131.466 39.4805 129.925 39.6359L131.532 55.5551ZM209.061 108.239C210.085 109.38 210.875 111.346 210.192 113.592L194.884 108.938C193.708 112.807 195 116.53 197.159 118.933L209.061 108.239ZM27.8426 137.285C23.6933 137.026 20.3707 133.59 20.3707 129.331H36.3707C36.3707 125.04 33.0231 121.578 28.8422 121.317L27.8426 137.285ZM22.3341 68.3887C22.537 64.2112 25.9787 60.8324 30.2702 60.8368L30.2539 76.8368C34.6123 76.8413 38.109 73.4094 38.3152 69.1651L22.3341 68.3887ZM20.3707 129.331C20.3707 133.769 23.9687 137.361 28.4006 137.361V121.361C32.7995 121.361 36.3707 124.926 36.3707 129.331H20.3707ZM173.08 70.6687C175.939 70.2384 178.843 72.0198 179.555 75.0921L163.969 78.7043C165.201 84.0229 170.324 87.264 175.463 86.4904L173.08 70.6687ZM121.611 50.3056C123.575 53.9352 127.513 55.9605 131.532 55.5551L129.925 39.6359C132.243 39.4021 134.535 40.5672 135.685 42.6937L121.611 50.3056Z" fill="black" mask="url(#path-8-inside-1_24_1860)"/>
<path fill-rule="evenodd" clip-rule="evenodd" d="M99.5744 64.8397C99.0441 65.2256 98.9224 65.9742 99.368 66.4554C100.9 68.1097 102.951 69.2123 105.201 69.5665C105.537 69.6194 105.873 69.6551 106.21 69.6738C105.76 70.2383 105.37 70.8516 105.049 71.5041C104.759 72.0925 105.089 72.7751 105.707 72.9939C106.326 73.2126 106.996 72.8826 107.307 72.3052C108.025 70.9729 109.123 69.8727 110.475 69.1537C111.826 68.4346 113.352 68.1381 114.858 68.2872C115.51 68.3519 116.159 67.9799 116.323 67.3449C116.487 66.7098 116.105 66.0547 115.455 65.9664C115.19 65.9303 114.924 65.905 114.657 65.8902C115.737 64.5353 116.46 62.9125 116.734 61.1709C117.089 58.9213 116.67 56.6303 115.566 54.6643C115.245 54.0924 114.495 53.9782 113.965 54.3642C113.435 54.7502 113.327 55.4899 113.627 56.0731C114.372 57.5195 114.644 59.1746 114.388 60.8015C114.07 62.822 112.962 64.6334 111.309 65.8372C109.655 67.041 107.591 67.5385 105.57 67.2204C103.943 66.9642 102.452 66.1962 101.304 65.0434C100.842 64.5787 100.105 64.4537 99.5744 64.8397ZM51.0925 91.5591C50.743 92.1141 49.9885 92.1903 49.4784 91.778C48.9683 91.3657 48.8983 90.6215 49.2275 90.0542C50.0439 88.6473 50.3998 87.008 50.2262 85.3703C50.0105 83.3363 48.9957 81.4712 47.4049 80.1855C45.8141 78.8997 43.7778 78.2985 41.7437 78.5141C40.106 78.6878 38.5779 79.3795 37.3734 80.4728C36.8878 80.9136 36.1454 81.0012 35.6353 80.5889C35.1252 80.1766 35.0415 79.4229 35.5108 78.9648C37.1242 77.3899 39.2287 76.3924 41.4933 76.1523C43.2466 75.9664 45.0012 76.2445 46.5894 76.9372C46.32 75.6498 46.3049 74.3213 46.5455 73.027C46.6654 72.3822 47.3385 72.0328 47.9647 72.2276C48.591 72.4224 48.9309 73.0882 48.8344 73.7369C48.6488 74.9855 48.7717 76.2671 49.2007 77.4671C49.7636 79.0419 50.8232 80.391 52.2197 81.3111C53.6162 82.2312 55.2739 82.6725 56.943 82.5684C58.215 82.489 59.441 82.0963 60.515 81.433C61.0731 81.0885 61.819 81.1381 62.2451 81.6367C62.6712 82.1352 62.6157 82.8915 62.0705 83.2561C60.5944 84.2433 58.8773 84.8274 57.0909 84.9388C55.4861 85.0389 53.8893 84.7536 52.4304 84.1173C52.4994 84.4472 52.5521 84.7818 52.588 85.1199C52.8281 87.3846 52.294 89.6514 51.0925 91.5591ZM156.379 102.901C156.03 103.455 155.275 103.532 154.765 103.119C154.255 102.707 154.185 101.963 154.514 101.396C155.331 99.9886 155.687 98.3494 155.513 96.7117C155.297 94.6777 154.283 92.8126 152.692 91.5268C151.101 90.241 149.065 89.6398 147.031 89.8555C145.393 90.0291 143.865 90.7209 142.66 91.8141C142.175 92.2549 141.432 92.3425 140.922 91.9303C140.412 91.518 140.328 90.7643 140.798 90.3061C142.411 88.7313 144.516 87.7338 146.78 87.4937C148.533 87.3078 150.288 87.5859 151.876 88.2785C151.607 86.9912 151.592 85.6626 151.832 84.3684C151.952 83.7236 152.625 83.3742 153.252 83.569C153.878 83.7638 154.218 84.4296 154.121 85.0783C153.936 86.3269 154.058 87.6084 154.487 88.8085C155.05 90.3832 156.11 91.7324 157.506 92.6525C158.903 93.5726 160.561 94.0139 162.23 93.9097C163.502 93.8304 164.728 93.4376 165.802 92.7744C166.36 92.4298 167.106 92.4794 167.532 92.978C167.958 93.4766 167.903 94.2329 167.357 94.5975C165.881 95.5847 164.164 96.1688 162.378 96.2802C160.773 96.3803 159.176 96.0949 157.717 95.4587C157.786 95.7886 157.839 96.1231 157.875 96.4613C158.115 98.7259 157.581 100.993 156.379 102.901Z" fill="black"/>
</svg>
