<svg width="71" height="56" viewBox="0 0 71 56" fill="none" xmlns="http://www.w3.org/2000/svg">
<circle cx="17.7397" cy="9.03886" r="8.56407" fill="#FF5C37"/>
<circle cx="53.1378" cy="44.6001" r="8.56407" fill="#FF5C37"/>
<path d="M26.3038 9.03886C26.3038 13.7687 22.4695 17.6029 17.7397 17.6029C13.0099 17.6029 9.17562 13.7687 9.17562 9.03886C9.17562 4.30906 13.0099 0.474792 17.7397 0.474792C22.4695 0.474792 26.3038 4.30906 26.3038 9.03886ZM11.656 9.03886C11.656 12.3988 14.3798 15.1225 17.7397 15.1225C21.0996 15.1225 23.8234 12.3988 23.8234 9.03886C23.8234 5.67894 21.0996 2.95519 17.7397 2.95519C14.3798 2.95519 11.656 5.67894 11.656 9.03886Z" fill="black"/>
<path d="M61.7019 44.6001C61.7019 49.3299 57.8676 53.1641 53.1378 53.1641C48.408 53.1641 44.5737 49.3299 44.5737 44.6001C44.5737 39.8703 48.408 36.036 53.1378 36.036C57.8676 36.036 61.7019 39.8703 61.7019 44.6001ZM47.0541 44.6001C47.0541 47.96 49.7779 50.6838 53.1378 50.6838C56.4977 50.6838 59.2215 47.96 59.2215 44.6001C59.2215 41.2402 56.4977 38.5164 53.1378 38.5164C49.7779 38.5164 47.0541 41.2402 47.0541 44.6001Z" fill="black"/>
<circle cx="33.9706" cy="27.8798" r="27.7313" fill="#FF5C37"/>
<path d="M61.7018 27.8798C61.7018 43.1954 49.2861 55.6111 33.9706 55.6111C18.655 55.6111 6.23929 43.1954 6.23929 27.8798C6.23929 12.5643 18.655 0.14856 33.9706 0.14856C49.2861 0.14856 61.7018 12.5643 61.7018 27.8798ZM8.77478 27.8798C8.77478 41.7951 20.0553 53.0756 33.9706 53.0756C47.8858 53.0756 59.1663 41.7951 59.1663 27.8798C59.1663 13.9646 47.8858 2.68405 33.9706 2.68405C20.0553 2.68405 8.77478 13.9646 8.77478 27.8798Z" fill="black"/>
<path d="M57.6238 27.8798C57.6238 40.943 47.0339 51.5329 33.9706 51.5329C20.9074 51.5329 10.3175 40.943 10.3175 27.8798C10.3175 14.8165 20.9074 4.22662 33.9706 4.22662C47.0339 4.22662 57.6238 14.8165 57.6238 27.8798ZM11.0322 27.8798C11.0322 40.5483 21.3021 50.8182 33.9706 50.8182C46.6392 50.8182 56.9091 40.5483 56.9091 27.8798C56.9091 15.2112 46.6392 4.94134 33.9706 4.94134C21.3021 4.94134 11.0322 15.2112 11.0322 27.8798Z" fill="black"/>
<mask id="path-8-inside-1_36_140" fill="white">
<path fill-rule="evenodd" clip-rule="evenodd" d="M46.2892 16.4068C45.4351 16.4319 44.6168 16.0076 44.1715 15.2784C41.0206 10.1181 35.3364 6.67358 28.8476 6.67358C19.2355 6.67358 11.3888 14.2324 10.9273 23.7301C10.9268 23.7416 10.9173 23.7507 10.9059 23.7507V23.7507C5.17538 23.7507 0.529907 28.3961 0.529907 34.1266C0.529907 39.636 4.82384 44.1425 10.2476 44.4821C10.2531 44.4824 10.2573 44.4869 10.2573 44.4923V44.4923C10.2573 44.498 10.2619 44.5026 10.2676 44.5026H67.7575C69.5483 44.5026 71 43.0509 71 41.2601C71 40.7605 70.887 40.2872 70.6851 39.8646C70.3196 39.0992 70.0381 38.2286 70.1967 37.3954C70.2983 36.8618 70.3515 36.3111 70.3515 35.7479C70.3515 30.9128 66.4319 26.9932 61.5968 26.9932V26.9932C60.4864 26.9932 59.4185 26.2974 59.0593 25.2467C57.3004 20.101 52.4229 16.401 46.6813 16.401C46.5501 16.401 46.4194 16.4029 46.2892 16.4068Z"/>
</mask>
<path fill-rule="evenodd" clip-rule="evenodd" d="M46.2892 16.4068C45.4351 16.4319 44.6168 16.0076 44.1715 15.2784C41.0206 10.1181 35.3364 6.67358 28.8476 6.67358C19.2355 6.67358 11.3888 14.2324 10.9273 23.7301C10.9268 23.7416 10.9173 23.7507 10.9059 23.7507V23.7507C5.17538 23.7507 0.529907 28.3961 0.529907 34.1266C0.529907 39.636 4.82384 44.1425 10.2476 44.4821C10.2531 44.4824 10.2573 44.4869 10.2573 44.4923V44.4923C10.2573 44.498 10.2619 44.5026 10.2676 44.5026H67.7575C69.5483 44.5026 71 43.0509 71 41.2601C71 40.7605 70.887 40.2872 70.6851 39.8646C70.3196 39.0992 70.0381 38.2286 70.1967 37.3954C70.2983 36.8618 70.3515 36.3111 70.3515 35.7479C70.3515 30.9128 66.4319 26.9932 61.5968 26.9932V26.9932C60.4864 26.9932 59.4185 26.2974 59.0593 25.2467C57.3004 20.101 52.4229 16.401 46.6813 16.401C46.5501 16.401 46.4194 16.4029 46.2892 16.4068Z" fill="#FF5C37"/>
<path d="M67.7575 44.5026L67.7575 47.5026L67.7575 47.5026L67.7575 44.5026ZM70.6851 39.8646L67.978 41.1573L70.6851 39.8646ZM70.1967 37.3954L67.2497 36.8342L70.1967 37.3954ZM10.2476 44.4821L10.0602 47.4762L10.2476 44.4821ZM10.9273 23.7301L7.93086 23.5846L10.9273 23.7301ZM59.0593 25.2467L56.2206 26.2171L56.2206 26.2171L59.0593 25.2467ZM44.1715 15.2784L41.6111 16.8418L44.1715 15.2784ZM46.2892 16.4068L46.2009 13.4081L46.2892 16.4068ZM28.8476 9.67358C34.2479 9.67358 38.9823 12.5365 41.6111 16.8418L46.7319 13.715C43.0589 7.69968 36.4248 3.67358 28.8476 3.67358V9.67358ZM13.9238 23.8757C14.308 15.9685 20.8436 9.67358 28.8476 9.67358V3.67358C17.6274 3.67358 8.46959 12.4962 7.93086 23.5846L13.9238 23.8757ZM3.52991 34.1266C3.52991 30.053 6.83224 26.7507 10.9059 26.7507V20.7507C3.51853 20.7507 -2.47009 26.7393 -2.47009 34.1266H3.52991ZM10.4351 41.4879C6.58227 41.2467 3.52991 38.042 3.52991 34.1266H-2.47009C-2.47009 41.2301 3.06541 47.0383 10.0602 47.4762L10.4351 41.4879ZM67.7575 41.5026H10.2676V47.5026H67.7575V41.5026ZM68 41.2601C68 41.394 67.8914 41.5026 67.7574 41.5026L67.7575 47.5026C71.2051 47.5026 74 44.7077 74 41.2601H68ZM67.978 41.1573C67.9911 41.1849 68 41.2173 68 41.2601H74C74 40.3037 73.7828 39.3896 73.3923 38.5718L67.978 41.1573ZM67.3515 35.7479C67.3515 36.1218 67.3162 36.4847 67.2497 36.8342L73.1438 37.9566C73.2804 37.2389 73.3515 36.5003 73.3515 35.7479H67.3515ZM61.5968 29.9932C64.775 29.9932 67.3515 32.5696 67.3515 35.7479H73.3515C73.3515 29.2559 68.0887 23.9932 61.5968 23.9932V29.9932ZM46.6813 19.401C51.1012 19.401 54.8639 22.2481 56.2206 26.2171L61.8981 24.2764C59.7369 17.9539 53.7447 13.401 46.6813 13.401V19.401ZM46.3775 19.4055C46.4783 19.4025 46.5796 19.401 46.6813 19.401V13.401C46.5207 13.401 46.3605 13.4034 46.2009 13.4081L46.3775 19.4055ZM73.3923 38.5718C73.2653 38.3059 73.198 38.1128 73.1677 37.9814C73.1383 37.854 73.1618 37.8619 73.1438 37.9566L67.2497 36.8342C66.906 38.639 67.5409 40.2422 67.978 41.1573L73.3923 38.5718ZM10.0602 47.4762C8.50371 47.3788 7.25734 46.09 7.25734 44.4923H13.2573C13.2573 42.8838 12.0024 41.586 10.4351 41.4879L10.0602 47.4762ZM7.93086 23.5846C8.00703 22.0168 9.29871 20.7489 10.9092 20.7507L10.9025 26.7507C12.5359 26.7525 13.8465 25.4664 13.9238 23.8757L7.93086 23.5846ZM7.25734 44.4923C7.25734 46.1558 8.60605 47.5026 10.2676 47.5026V41.5026C11.9178 41.5026 13.2573 42.8402 13.2573 44.4923H7.25734ZM61.5968 23.9932C61.6601 23.9932 61.6986 24.0097 61.7288 24.0302C61.7627 24.0531 61.8463 24.125 61.8981 24.2764L56.2206 26.2171C57.0343 28.5975 59.3302 29.9932 61.5968 29.9932V23.9932ZM41.6111 16.8418C42.6419 18.5299 44.4941 19.4609 46.3775 19.4055L46.2009 13.4081C46.3761 13.4029 46.5917 13.4854 46.7319 13.715L41.6111 16.8418Z" fill="black" mask="url(#path-8-inside-1_36_140)"/>
<path fill-rule="evenodd" clip-rule="evenodd" d="M34.671 22.3802C34.4892 22.5125 34.4475 22.7692 34.6003 22.9342C35.1254 23.5014 35.8288 23.8794 36.6001 24.0009C36.7153 24.019 36.8308 24.0312 36.9462 24.0376C36.7919 24.2312 36.6582 24.4415 36.548 24.6652C36.4486 24.8669 36.5618 25.101 36.7738 25.176C36.9858 25.251 37.2158 25.1379 37.3224 24.9399C37.5684 24.4831 37.945 24.1059 38.4084 23.8593C38.8717 23.6128 39.3949 23.5111 39.9112 23.5622C40.135 23.5844 40.3573 23.4569 40.4136 23.2391C40.4698 23.0214 40.3389 22.7968 40.1161 22.7665C40.0251 22.7541 39.9338 22.7454 39.8425 22.7404C40.2128 22.2758 40.4606 21.7194 40.5546 21.1223C40.6761 20.3509 40.5325 19.5654 40.1541 18.8914C40.044 18.6953 39.787 18.6561 39.6052 18.7885C39.4234 18.9208 39.3865 19.1744 39.4894 19.3744C39.7446 19.8703 39.838 20.4378 39.7502 20.9956C39.6411 21.6884 39.2613 22.3095 38.6943 22.7222C38.1273 23.1349 37.4196 23.3055 36.7268 23.1965C36.169 23.1086 35.6577 22.8453 35.2642 22.45C35.1055 22.2907 34.8528 22.2478 34.671 22.3802ZM18.048 31.5415C17.9282 31.7318 17.6695 31.7579 17.4946 31.6165C17.3197 31.4752 17.2957 31.22 17.4085 31.0255C17.6885 30.5431 17.8105 29.981 17.751 29.4195C17.677 28.7221 17.3291 28.0826 16.7836 27.6418C16.2382 27.2009 15.54 26.9948 14.8426 27.0687C14.2811 27.1283 13.7571 27.3654 13.3441 27.7403C13.1776 27.8914 12.9231 27.9215 12.7482 27.7801C12.5733 27.6388 12.5446 27.3803 12.7055 27.2233C13.2587 26.6833 13.9802 26.3413 14.7567 26.2589C15.3579 26.1952 15.9595 26.2906 16.504 26.5281C16.4117 26.0867 16.4065 25.6311 16.489 25.1874C16.5301 24.9663 16.7609 24.8465 16.9756 24.9133C17.1903 24.9801 17.3069 25.2083 17.2738 25.4308C17.2101 25.8589 17.2523 26.2983 17.3994 26.7097C17.5924 27.2497 17.9557 27.7123 18.4345 28.0277C18.9133 28.3432 19.4817 28.4945 20.054 28.4588C20.4901 28.4316 20.9105 28.2969 21.2787 28.0695C21.4701 27.9514 21.7258 27.9684 21.8719 28.1394C22.018 28.3103 21.999 28.5696 21.8121 28.6946C21.3059 29.0331 20.7172 29.2334 20.1047 29.2716C19.5544 29.3059 19.0069 29.208 18.5067 28.9899C18.5304 29.103 18.5485 29.2177 18.5608 29.3337C18.6431 30.1101 18.46 30.8874 18.048 31.5415ZM54.1477 35.4301C54.0279 35.6204 53.7692 35.6465 53.5943 35.5052C53.4194 35.3638 53.3954 35.1086 53.5083 34.9141C53.7882 34.4317 53.9102 33.8697 53.8507 33.3082C53.7767 32.6108 53.4288 31.9713 52.8834 31.5304C52.3379 31.0896 51.6397 30.8834 50.9423 30.9574C50.3808 31.0169 49.8568 31.2541 49.4439 31.6289C49.2773 31.7801 49.0228 31.8101 48.8479 31.6688C48.673 31.5274 48.6443 31.269 48.8052 31.1119C49.3584 30.5719 50.08 30.2299 50.8565 30.1476C51.4576 30.0838 52.0592 30.1792 52.6037 30.4167C52.5114 29.9753 52.5062 29.5198 52.5887 29.076C52.6298 28.8549 52.8605 28.7351 53.0753 28.8019C53.29 28.8687 53.4065 29.097 53.3735 29.3194C53.3098 29.7475 53.352 30.1869 53.499 30.5984C53.6921 31.1383 54.0554 31.6009 54.5342 31.9164C55.013 32.2319 55.5814 32.3831 56.1537 32.3475C56.5898 32.3202 57.0101 32.1856 57.3784 31.9582C57.5697 31.84 57.8255 31.857 57.9716 32.028C58.1177 32.1989 58.0987 32.4582 57.9117 32.5833C57.4056 32.9217 56.8169 33.122 56.2044 33.1602C55.6541 33.1945 55.1067 33.0967 54.6064 32.8785C54.6301 32.9917 54.6482 33.1064 54.6605 33.2223C54.7428 33.9988 54.5597 34.776 54.1477 35.4301Z" fill="black"/>
</svg>
